<?xml version="1.0" standalone="no"?><!DOCTYPE svg PUBLIC "-//W3C//DTD SVG 1.1//EN" "http://www.w3.org/Graphics/SVG/1.1/DTD/svg11.dtd"><svg t="1745372646743" class="icon" viewBox="0 0 1024 1024" version="1.1" xmlns="http://www.w3.org/2000/svg" p-id="4657" xmlns:xlink="http://www.w3.org/1999/xlink" width="200" height="200"><path d="M0 1024h1024V0H0v1024z" fill="#2568FF" p-id="4658"></path><path d="M102.4 839.68h823.7056V184.32H102.4v655.36z" fill="#2568FF" p-id="4659"></path><path d="M840.02304 184.32s40.13056 79.01696 21.7344 125.04064c-9.41568 23.55712-36.70016 51.64544-66.60096 51.64544H403.46112a102.46656 102.46656 0 0 0-19.88608 1.95584 102.6048 102.6048 0 0 0-19.1232 5.80096 101.09952 101.09952 0 0 0-17.62304 9.4208 101.46816 101.46816 0 0 0-15.44704 12.67712 101.50912 101.50912 0 0 0-15.36 19.67616 101.62176 101.62176 0 0 0-11.4432 27.63776 102.7328 102.7328 0 0 0-2.93376 19.7632c-0.08192 1.66912-0.12288 3.33312-0.12288 5.00224v286.76608a77.78816 77.78816 0 0 0 3.328 22.49216 77.2864 77.2864 0 0 0 11.90912 23.66464 79.36512 79.36512 0 0 0 4.82304 5.87776 74.87488 74.87488 0 0 0 5.376 5.376 73.15968 73.15968 0 0 0 5.87776 4.82304 77.18912 77.18912 0 0 0 27.32544 12.928 71.4752 71.4752 0 0 0 7.45984 1.47968 78.20288 78.20288 0 0 0 11.3664 0.8448H485.632a49.4592 49.4592 0 0 0 4.93056-0.25088 49.09568 49.09568 0 0 0 12.01152-2.69312 52.41344 52.41344 0 0 0 6.7584-3.00032 50.13504 50.13504 0 0 0 11.8528-8.79616 46.8224 46.8224 0 0 0 3.31264-3.65568 50.86208 50.86208 0 0 0 4.25984-6.04672 49.34144 49.34144 0 0 0 4.21376-8.91392c0.27648-0.77312 0.5376-1.55648 0.77312-2.34496a46.5152 46.5152 0 0 0 1.19808-4.78208 49.28512 49.28512 0 0 0 0.96768-9.80992v-66.02752h73.58976a49.11616 49.11616 0 0 0 9.80992-0.96768 49.32608 49.32608 0 0 0 11.68384-3.86048 49.18272 49.18272 0 0 0 6.43584-3.65056 49.32608 49.32608 0 0 0 7.61856-6.25152 46.88384 46.88384 0 0 0 3.31264-3.65568 45.9264 45.9264 0 0 0 2.93888-3.95776 55.17312 55.17312 0 0 0 2.5344-4.23424 52.096 52.096 0 0 0 2.10944-4.45952 46.33088 46.33088 0 0 0 1.664-4.64384 49.6384 49.6384 0 0 0 2.17088-14.592v-57.67168a203.29984 203.29984 0 0 0 161.2032-79.43168l3.712-4.82816H625.7664a49.7664 49.7664 0 0 0-9.80992 0.96768 46.5152 46.5152 0 0 0-4.78208 1.2032 46.49984 46.49984 0 0 0-4.64896 1.664 46.35648 46.35648 0 0 0-4.45952 2.10944 49.16224 49.16224 0 0 0-4.22912 2.53952c-0.68608 0.45568-1.3568 0.93184-2.0224 1.41824a50.65216 50.65216 0 0 0-17.3824 23.4496 48.34304 48.34304 0 0 0-1.97632 7.13216 49.24416 49.24416 0 0 0-0.72192 4.87936 49.78176 49.78176 0 0 0-0.24064 4.93056v46.7712a10.87488 10.87488 0 0 1-10.88 10.86464H501.91872a49.5872 49.5872 0 0 0-7.37792 0.54272c-0.8192 0.12288-1.62816 0.26112-2.432 0.41984a55.10144 55.10144 0 0 0-4.7872 1.2032 47.3344 47.3344 0 0 0-4.64896 1.664 46.03904 46.03904 0 0 0-4.46464 2.10944 49.152 49.152 0 0 0-8.192 5.47328 49.98656 49.98656 0 0 0-9.91744 10.93632 50.44224 50.44224 0 0 0-8.4736 27.94496v46.47424a19.56864 19.56864 0 0 1-19.54816 19.56864h-26.74176a20.02944 20.02944 0 0 1-7.49056-1.4848 17.9712 17.9712 0 0 1-2.57024-1.29536 24.07936 24.07936 0 0 1-1.60256-1.06496 22.48192 22.48192 0 0 1-1.4848-1.21856 20.352 20.352 0 0 1-3.1232-3.63008 18.46784 18.46784 0 0 1-0.99328-1.64864 20.8896 20.8896 0 0 1-0.8192-1.73568 21.5552 21.5552 0 0 1-0.64512-1.80736 20.13184 20.13184 0 0 1-0.8192-4.72576 19.9168 19.9168 0 0 1-0.02048-0.95744V462.94016a17.68448 17.68448 0 0 1 17.67936-17.67424h418.88256a101.56032 101.56032 0 0 0 24.76544-3.05664 100.20864 100.20864 0 0 0 14.24384-4.70528 103.22944 103.22944 0 0 0 13.39392-6.74304 100.5568 100.5568 0 0 0 12.2624-8.63232 99.26144 99.26144 0 0 0 7.41376-6.71744 99.8912 99.8912 0 0 0 12.67712-15.44704c0.92672-1.38752 1.8176-2.79552 2.68288-4.22912a107.14112 107.14112 0 0 0 4.7104-8.82176c0.70656-1.5104 1.38752-3.03616 2.02752-4.57728a102.7584 102.7584 0 0 0 4.70528-14.23872 105.63584 105.63584 0 0 0 2.56512-14.77632 108.40064 108.40064 0 0 0 0.49152-9.98912 181.84704 181.84704 0 0 0-2.96448-32.9216 178.432 178.432 0 0 0-1.92-9.2672 175.39584 175.39584 0 0 0-3.7632-13.6704 174.4384 174.4384 0 0 0-1.48992-4.49024 173.05088 173.05088 0 0 0-3.31264-8.8576 171.33056 171.33056 0 0 0-3.7632-8.67328 187.2896 187.2896 0 0 0-19.33312-32.44032 171.82208 171.82208 0 0 0-5.84192-7.43936 184.7296 184.7296 0 0 0-16.18432-17.20832L840.02304 184.32zM164.92544 309.76c-18.39104-46.04928 21.73952-125.06624 21.73952-125.06624l-25.71264 24.064a183.7568 183.7568 0 0 0-19.1488 20.8896 185.23136 185.23136 0 0 0-24.13568 40.51456 187.5712 187.5712 0 0 0-6.62528 17.70496 185.58464 185.58464 0 0 0-7.13216 32.27648A183.37792 183.37792 0 0 0 102.4 343.72096a101.8112 101.8112 0 0 0 9.78944 43.58656 101.82144 101.82144 0 0 0 27.47904 35.21024 101.8368 101.8368 0 0 0 44.78464 21.18144 101.0688 101.0688 0 0 0 19.88608 1.96096h24.90368v-0.39424a127.23712 127.23712 0 0 1 32.3584-84.97152c-66.28864-5.4272-88.38144-29.75232-96.67584-50.56v0.02048z" fill="#FFFFFF" p-id="4660"></path></svg>